<svg width="753" height="856" viewBox="0 0 753 856" fill="none" xmlns="http://www.w3.org/2000/svg">
<path d="M41 334H171.209C171.614 334 171.979 333.756 172.133 333.383L247.981 150.284C248.325 149.453 249.504 149.463 249.835 150.299L360.495 430.54C360.87 431.491 362.262 431.332 362.414 430.321L389.1 252.66C389.238 251.743 390.441 251.491 390.935 252.275L442.206 333.534C442.389 333.824 442.708 334 443.051 334H688" stroke="#C93400" stroke-width="40"/>
<path d="M74.4999 106.5C46.498 152.121 25.0089 509.568 57.9998 509.568H142.058L105 719.499L290.211 509.568H669C716.5 509.568 734 130.193 669 69.0518C604 7.91064 102.502 60.8786 74.4999 106.5Z" stroke="#C93400" stroke-width="82"/>
</svg>
